<svg viewBox="0 0 56.89 56.89" xmlns="http://www.w3.org/2000/svg"><rect height="56.89" rx="2" width="56.89" fill="#00aced"/><path d="m43.6 19.67a12.12 12.12 0 0 1 -3.47.95 6.05 6.05 0 0 0 2.66-3.34 12.13 12.13 0 0 1 -3.79 1.46 6 6 0 0 0 -10.44 4.14 5.65 5.65 0 0 0 .16 1.37 17.12 17.12 0 0 1 -12.45-6.31 6 6 0 0 0 1.82 8.06 6.06 6.06 0 0 1 -2.74-.75v.07a6 6 0 0 0 4.85 5.92 6 6 0 0 1 -1.59.22 6.12 6.12 0 0 1 -1.14-.11 6 6 0 0 0 5.64 4.19 12.12 12.12 0 0 1 -7.5 2.59 11.36 11.36 0 0 1 -1.44-.13 17.12 17.12 0 0 0 9.26 2.71c11.1 0 17.18-9.2 17.18-17.17 0-.27 0-.53 0-.79a12.23 12.23 0 0 0 3-3.12" fill="#fff"/></svg>
