<svg height="3.204in" viewBox="0 0 231.867 230.701" width="3.22in" xmlns="http://www.w3.org/2000/svg"><g transform="translate(-8.199 -8.158)"><path d="m8.2 172.089c0 12.238 6.292 18.624 13.37 22.379l102.564 44.391 102.566-44.391c7.073-3.755 13.366-10.141 13.366-22.379v-97.163c0-12.241-6.293-18.628-13.366-22.38l-102.567-44.388-102.568 44.388c-7.074 3.754-13.365 10.139-13.365 22.38z" fill="#d51e18"/><path d="m202.881 154.649v-78.963l-78.748 35.8-78.744-35.8v78.963c0 10.015-.2 14.794 6.879 18.658 6.054 3.3 18.03 7.477 18.03 7.477v-61.784l53.835 23.7 53.836-23.7v61.78s11.975-4.18 18.031-7.473c7.071-3.864 6.881-8.643 6.881-18.658z" fill="#fff"/></g></svg>
